<svg width="24" height="22" viewBox="0 0 24 22" fill="none" xmlns="http://www.w3.org/2000/svg">
<path d="M23.0212 4.1226L16.0212 0.622603C15.8591 0.541496 15.6803 0.499268 15.4991 0.499268C15.3178 0.499268 15.1391 0.541496 14.977 0.622603L8.49967 3.86244L2.02117 0.622603C1.84326 0.5337 1.64558 0.491755 1.44689 0.500754C1.24821 0.509752 1.05512 0.569394 0.885972 0.674016C0.716824 0.778637 0.577231 0.924764 0.48045 1.09852C0.38367 1.27227 0.332915 1.46788 0.333008 1.66677V16.8334C0.333008 17.2756 0.582675 17.6793 0.978175 17.8776L7.97818 21.3776C8.14026 21.4587 8.31901 21.5009 8.50026 21.5009C8.6815 21.5009 8.86026 21.4587 9.02234 21.3776L15.4997 18.1378L21.9782 21.3764C22.1556 21.4662 22.3531 21.5087 22.5517 21.4999C22.7504 21.4911 22.9434 21.4313 23.1122 21.3263C23.4563 21.1128 23.6663 20.7383 23.6663 20.3334V5.16677C23.6663 4.7246 23.4167 4.32094 23.0212 4.1226ZM9.66634 5.88777L14.333 3.55444V16.1124L9.66634 18.4458V5.88777ZM2.66634 3.55444L7.33301 5.88777V18.4458L2.66634 16.1124V3.55444ZM21.333 18.4458L16.6663 16.1124V3.55444L21.333 5.88777V18.4458Z" fill="#2160DB"/>
</svg>
