<svg width="316" height="237" viewBox="0 0 316 237" fill="none" xmlns="http://www.w3.org/2000/svg">
<path d="M29.625 0C21.768 0 14.2327 3.1212 8.67696 8.67696C3.1212 14.2327 0 21.768 0 29.625L0 207.375C0 215.232 3.1212 222.767 8.67696 228.323C14.2327 233.879 21.768 237 29.625 237H286.375C294.232 237 301.767 233.879 307.323 228.323C312.879 222.767 316 215.232 316 207.375V29.625C316 21.768 312.879 14.2327 307.323 8.67696C301.767 3.1212 294.232 0 286.375 0H29.625ZM286.375 19.75C288.994 19.75 291.506 20.7904 293.358 22.6423C295.21 24.4942 296.25 27.006 296.25 29.625V148.125L221.694 109.672C219.842 108.744 217.745 108.422 215.7 108.752C213.654 109.081 211.765 110.046 210.298 111.508L137.025 184.781L84.4905 149.784C82.5937 148.521 80.3186 147.953 78.0508 148.176C75.783 148.4 73.6622 149.4 72.048 151.008L19.7895 197.5V208.165C19.7659 207.902 19.7527 207.639 19.75 207.375V29.625C19.75 27.006 20.7904 24.4942 22.6423 22.6423C24.4942 20.7904 27.006 19.75 29.625 19.75H286.375Z" fill="#C4C4C4"/>
</svg>
