<svg width="89" height="89" viewBox="0 0 89 89" fill="none" xmlns="http://www.w3.org/2000/svg">
<circle cx="44.5" cy="44.5" r="44.5" fill="#FFD3D3"/>
<g clip-path="url(#clip0_1647_20197)">
<path d="M60.1109 28.0597H51.1049L50.3995 26.6872C50.25 26.3938 50.0198 26.147 49.7348 25.9746C49.4497 25.8021 49.1211 25.7109 48.7859 25.7111H40.2077C39.8733 25.7098 39.5453 25.8007 39.2612 25.9734C38.9772 26.146 38.7486 26.3934 38.6017 26.6872L37.8962 28.0597H28.8902C28.5718 28.0597 28.2664 28.1834 28.0412 28.4037C27.816 28.6239 27.6895 28.9226 27.6895 29.234V31.5826C27.6895 31.8941 27.816 32.1928 28.0412 32.413C28.2664 32.6332 28.5718 32.7569 28.8902 32.7569H60.1109C60.4294 32.7569 60.7348 32.6332 60.96 32.413C61.1852 32.1928 61.3117 31.8941 61.3117 31.5826V29.234C61.3117 28.9226 61.1852 28.6239 60.96 28.4037C60.7348 28.1834 60.4294 28.0597 60.1109 28.0597ZM31.6821 59.9862C31.7394 60.8806 32.143 61.72 32.8109 62.3336C33.4787 62.9472 34.3606 63.2888 35.277 63.2889H53.7242C54.6405 63.2888 55.5224 62.9472 56.1903 62.3336C56.8581 61.72 57.2618 60.8806 57.319 59.9862L58.9101 35.1056H30.091L31.6821 59.9862Z" fill="#FD3535"/>
</g>
<defs>
<clipPath id="clip0_1647_20197">
<rect width="33.6222" height="37.5778" fill="white" transform="translate(27.6895 25.7111)"/>
</clipPath>
</defs>
</svg>
