<svg width="89" height="89" viewBox="0 0 89 89" fill="none" xmlns="http://www.w3.org/2000/svg">
<circle cx="44.5" cy="44.5" r="44.5" fill="#FFD3D3"/>
<path d="M40 56.02C40 55.4947 40.1035 54.9746 40.3045 54.4893C40.5055 54.004 40.8001 53.563 41.1716 53.1916C41.543 52.8201 41.984 52.5255 42.4693 52.3245C42.9546 52.1235 43.4747 52.02 44 52.02C44.5253 52.02 45.0454 52.1235 45.5307 52.3245C46.016 52.5255 46.457 52.8201 46.8284 53.1916C47.1999 53.563 47.4945 54.004 47.6955 54.4893C47.8965 54.9746 48 55.4947 48 56.02C48 57.0809 47.5786 58.0983 46.8284 58.8484C46.0783 59.5986 45.0609 60.02 44 60.02C42.9391 60.02 41.9217 59.5986 41.1716 58.8484C40.4214 58.0983 40 57.0809 40 56.02ZM40.392 32C40.3387 31.4954 40.3922 30.9852 40.5488 30.5025C40.7054 30.0199 40.9618 29.5755 41.3013 29.1983C41.6407 28.8212 42.0557 28.5196 42.5192 28.3131C42.9828 28.1067 43.4846 28 43.992 28C44.4994 28 45.0012 28.1067 45.4648 28.3131C45.9283 28.5196 46.3433 28.8212 46.6827 29.1983C47.0222 29.5755 47.2786 30.0199 47.4352 30.5025C47.5918 30.9852 47.6453 31.4954 47.592 32L46.192 46.028C46.1351 46.5719 45.8788 47.0754 45.4725 47.4414C45.0663 47.8074 44.5388 48.0099 43.992 48.0099C43.4452 48.0099 42.9177 47.8074 42.5115 47.4414C42.1052 47.0754 41.8489 46.5719 41.792 46.028L40.392 32Z" fill="#D32F2F"/>
</svg>
