<svg width="20" height="20" viewBox="0 0 20 20" fill="none" xmlns="http://www.w3.org/2000/svg">
<path d="M19.79 15.06L14.24 9.50996L15.81 7.93996L12.06 4.18996L10.49 5.75996L4.93996 0.209961L0.209961 4.93996L5.75996 10.49L0.999961 15.25V19H4.74996L9.50996 14.24L15.06 19.79L19.79 15.06ZM7.17996 9.06996L3.03996 4.93996L4.93996 3.03996L6.20996 4.30996L5.01996 5.49996L6.42996 6.90996L7.61996 5.71996L9.06996 7.16996L7.17996 9.06996ZM10.93 12.82L12.83 10.92L14.28 12.37L13.09 13.56L14.5 14.97L15.69 13.78L16.96 15.05L15.06 16.95L10.93 12.82ZM13.133 3.12296L15.671 0.583961L19.419 4.33196L16.881 6.87096L13.133 3.12296Z" fill="#6B7280"/>
</svg>
