<svg width="30" height="30" viewBox="0 0 30 30" fill="none" xmlns="http://www.w3.org/2000/svg">
<path fill-rule="evenodd" clip-rule="evenodd" d="M0 0H16.9616C23.0849 0 28.0488 4.9639 28.0488 11.0872C28.0488 12.7891 27.6653 14.4014 26.9801 15.8425L12.2041 3.54848L0 13.7026V0ZM26.3945 16.9164C25.285 18.708 23.6794 20.16 21.7694 21.0806L13.0029 13.2924L12.6172 12.9498L12.2207 13.2798L0.0135933 23.4364V22.1744H0V15.2637L12.2041 5.10953L26.3945 16.9164ZM12.5916 14.5322L29.9774 29.9777L30 30H21.8476L12.5877 22.2955L12.204 21.9762L11.8202 22.2955L2.56032 30H0.0135933V24.9975L12.5916 14.5322ZM4.43651 30H19.9715L12.204 23.5372L4.43651 30Z" fill="#054BD2"/>
</svg>
