<svg width="24" height="24" viewBox="0 0 24 24" fill="none" xmlns="http://www.w3.org/2000/svg">
<path d="M22.3532 12.5068L17.7332 10.3802V4.28685C17.7311 4.15901 17.6923 4.03448 17.6214 3.9281C17.5504 3.82171 17.4504 3.73797 17.3332 3.68685L12.3332 1.38685C12.2455 1.34623 12.1499 1.3252 12.0532 1.3252C11.9565 1.3252 11.861 1.34623 11.7732 1.38685L6.77324 3.68685C6.65752 3.7404 6.55958 3.82602 6.49105 3.93355C6.42251 4.04107 6.38626 4.166 6.38657 4.29351V10.3868L1.78657 12.5068C1.67085 12.5604 1.57292 12.646 1.50438 12.7535C1.43585 12.8611 1.39959 12.986 1.3999 13.1135V19.6335C1.39959 19.761 1.43585 19.886 1.50438 19.9935C1.57292 20.101 1.67085 20.1866 1.78657 20.2402L6.78657 22.5402C6.87433 22.5808 6.96987 22.6018 7.06657 22.6018C7.16327 22.6018 7.25881 22.5808 7.34657 22.5402L12.0666 20.3668L16.7866 22.5402C16.8743 22.5808 16.9699 22.6018 17.0666 22.6018C17.1633 22.6018 17.2588 22.5808 17.3466 22.5402L22.3466 20.2402C22.4623 20.1866 22.5602 20.101 22.6288 19.9935C22.6973 19.886 22.7336 19.761 22.7332 19.6335V13.1135C22.7341 12.9867 22.6989 12.8623 22.6316 12.7549C22.5643 12.6474 22.4677 12.5614 22.3532 12.5068ZM17.0732 14.6668L13.6666 13.1135L17.0732 11.5468L20.4799 13.1135L17.0732 14.6668ZM16.4066 10.3735L12.1132 12.3735V7.24685C12.1936 7.24329 12.2726 7.22522 12.3466 7.19351L16.3999 5.33351V10.3868L16.4066 10.3735ZM12.0666 2.72018L15.4732 4.28685L12.0666 5.85351L8.66657 4.28685L12.0666 2.72018ZM7.06657 11.5402L10.4732 13.1068L7.06657 14.6668L3.6599 13.1135L7.06657 11.5402ZM11.3999 19.2002L7.06657 21.2002V16.0735C7.15961 16.068 7.25045 16.043 7.33324 16.0002L11.3866 14.1335L11.3999 19.2002ZM21.3999 19.2002L17.0932 21.2002V16.0735C17.1772 16.0645 17.2586 16.0396 17.3332 16.0002L21.3866 14.1335L21.3999 19.2002Z" fill="#6B7280"/>
</svg>
