<svg width="89" height="89" viewBox="0 0 89 89" fill="none" xmlns="http://www.w3.org/2000/svg">
<circle opacity="0.3" cx="44.5" cy="44.5" r="44.5" fill="#00A81B"/>
<path d="M55.5388 32.8272C56.1023 32.2908 56.8521 31.9942 57.6301 32.0001C58.4081 32.006 59.1533 32.3139 59.7086 32.8588C60.2639 33.4037 60.5858 34.143 60.6064 34.9207C60.6269 35.6984 60.3446 36.4537 59.8188 37.0272L43.8588 56.9872C43.5844 57.2828 43.2532 57.52 42.885 57.6847C42.5168 57.8493 42.1191 57.9381 41.7158 57.9455C41.3126 57.953 40.9119 57.8791 40.5379 57.7281C40.1638 57.5772 39.824 57.3524 39.5388 57.0672L28.9548 46.4832C28.6601 46.2086 28.4237 45.8774 28.2597 45.5094C28.0957 45.1414 28.0076 44.7441 28.0005 44.3413C27.9934 43.9385 28.0675 43.5384 28.2183 43.1648C28.3692 42.7913 28.5938 42.4519 28.8787 42.1671C29.1636 41.8822 29.5029 41.6576 29.8764 41.5067C30.25 41.3558 30.6501 41.2817 31.0529 41.2888C31.4557 41.296 31.853 41.3841 32.221 41.5481C32.589 41.7121 32.9202 41.9485 33.1948 42.2432L41.5708 50.6152L55.4628 32.9152C55.4878 32.8844 55.5146 32.855 55.5428 32.8272H55.5388Z" fill="#00A81B"/>
</svg>
