<svg width="24" height="20" viewBox="0 0 24 20" fill="none" xmlns="http://www.w3.org/2000/svg">
<path d="M1.8 0C0.807375 0 0 0.807375 0 1.8V4.2C0 4.5315 0.2685 4.8 0.6 4.8H3.6V1.8C3.6 0.807375 2.79263 0 1.8 0ZM9.6 15.4714V13.2H20.4V3.6C20.4 1.61475 18.7853 0 16.8 0H4.18463C4.56525 0.502875 4.8 1.122 4.8 1.8V15.6C4.8 17.0576 6.09938 18.2119 7.60313 17.967C8.78325 17.775 9.6 16.6673 9.6 15.4714ZM10.8 14.4V15.6C10.8 17.5849 9.18525 19.2 7.2 19.2H19.8C22.1198 19.2 24 17.3197 24 15C24 14.6685 23.7315 14.4 23.4 14.4H10.8Z" fill="#6B7280"/>
</svg>
