<svg width="18" height="22" viewBox="0 0 18 22" fill="none" xmlns="http://www.w3.org/2000/svg">
<path d="M16.5492 9.99665C16.0942 8.97256 15.4328 8.0534 14.6063 7.29665L13.9242 6.67087C13.9011 6.65021 13.8732 6.63554 13.843 6.62816C13.8129 6.62078 13.7814 6.62092 13.7513 6.62856C13.7212 6.63619 13.6935 6.6511 13.6705 6.67196C13.6475 6.69282 13.63 6.71901 13.6195 6.74821L13.3148 7.62243C13.125 8.17087 12.7758 8.73103 12.2812 9.28181C12.2484 9.31697 12.2109 9.32634 12.1852 9.32868C12.1594 9.33103 12.1195 9.32634 12.0844 9.29353C12.0516 9.2654 12.0352 9.22321 12.0375 9.18103C12.1242 7.77009 11.7023 6.17868 10.7789 4.44665C10.0148 3.00759 8.95312 1.88493 7.62656 1.10212L6.65859 0.532589C6.53203 0.457589 6.37031 0.556027 6.37734 0.703683L6.42891 1.82868C6.46406 2.59743 6.375 3.27712 6.16406 3.84196C5.90625 4.53337 5.53594 5.17556 5.0625 5.75212C4.73302 6.15282 4.35959 6.51524 3.94922 6.83259C2.96087 7.59235 2.15722 8.56587 1.59844 9.68025C1.04103 10.8043 0.75068 12.0419 0.75 13.2967C0.75 14.4029 0.967969 15.474 1.39922 16.4842C1.81562 17.4567 2.41654 18.3394 3.16875 19.0834C3.92813 19.8334 4.80938 20.424 5.79141 20.8342C6.80859 21.2607 7.88672 21.4763 9 21.4763C10.1133 21.4763 11.1914 21.2607 12.2086 20.8365C13.1882 20.4287 14.079 19.8341 14.8312 19.0857C15.5906 18.3357 16.1859 17.4592 16.6008 16.4865C17.0314 15.4791 17.2523 14.3946 17.25 13.299C17.25 12.1552 17.0156 11.0443 16.5492 9.99665Z" fill="#6B7280"/>
</svg>
