<svg width="32" height="31" viewBox="0 0 32 31" fill="none" xmlns="http://www.w3.org/2000/svg">
<circle cx="16.0001" cy="15.0723" r="15.0723" fill="white"/>
<path d="M31.0724 15.0723C31.0724 19.0698 29.4844 22.9035 26.6578 25.7301C23.8312 28.5567 19.9975 30.1447 16.0001 30.1447C12.0026 30.1447 8.16893 28.5567 5.34232 25.7301C2.51571 22.9035 0.927734 19.0698 0.927734 15.0723C0.927734 11.0749 2.51571 7.2412 5.34232 4.41459C8.16893 1.58797 12.0026 0 16.0001 0C19.9975 0 23.8312 1.58797 26.6578 4.41459C29.4844 7.2412 31.0724 11.0749 31.0724 15.0723ZM23.5928 9.36369C23.4582 9.22958 23.2979 9.12399 23.1216 9.05323C22.9453 8.98247 22.7565 8.94799 22.5666 8.95186C22.3766 8.95573 22.1894 8.99787 22.0161 9.07575C21.8428 9.15363 21.687 9.26566 21.558 9.40514L15.0147 17.742L11.0714 13.7968C10.8036 13.5472 10.4493 13.4114 10.0832 13.4178C9.71712 13.4243 9.36785 13.5726 9.10896 13.8315C8.85007 14.0904 8.70177 14.4396 8.69531 14.8057C8.68885 15.1718 8.82474 15.5261 9.07433 15.7939L14.0595 20.781C14.1938 20.915 14.3537 21.0207 14.5297 21.0916C14.7057 21.1625 14.8942 21.1972 15.084 21.1937C15.2737 21.1902 15.4607 21.1485 15.634 21.0711C15.8073 20.9937 15.9632 20.8822 16.0924 20.7433L23.6135 11.3419C23.8699 11.0753 24.0115 10.7188 24.008 10.349C24.0045 9.9791 23.8561 9.62535 23.5947 9.36369H23.5928Z" fill="#5CB860"/>
</svg>
