<svg width="561" height="561" viewBox="0 0 561 561" fill="none" xmlns="http://www.w3.org/2000/svg">
<g clip-path="url(#clip0_1636_21697)">
<g filter="url(#filter0_f_1636_21697)">
<path d="M42.4902 369.943L83.9198 435.551C90.6469 446.175 99.8562 455.012 110.754 461.267L284.589 561.081C293.749 566.343 305.018 566.244 314.079 560.857L530.014 432.324C534.309 429.767 533.738 423.387 529.046 421.625L482.503 404.298L42.4902 369.943Z" fill="url(#paint0_linear_1636_21697)"/>
</g>
<path d="M525.298 148.249V338.542L277.565 481.573L29.8311 338.542V148.249C29.8311 141.746 33.3062 135.738 38.9162 132.511L268.455 -0.0434392C274.089 -3.29525 281.015 -3.29525 286.65 -0.0434392L516.188 132.487C521.823 135.738 525.273 141.746 525.273 148.224L525.298 148.249Z" fill="url(#paint1_linear_1636_21697)"/>
<path d="M515.94 320.645L297.274 195.438C284.862 188.264 264.78 188.264 252.443 195.438L39.0401 319.553C33.1074 323.003 30.0541 327.471 29.8555 331.964C29.7314 334.67 29.8059 353.387 29.8555 355.993C29.93 360.66 33.0576 365.302 39.2137 368.851L257.904 494.059C270.316 501.232 290.398 501.232 302.71 494.059L516.113 369.968C522.046 366.518 525.099 362.05 525.323 357.532C525.447 354.826 525.372 336.135 525.323 333.528C525.248 328.861 522.145 324.195 515.964 320.645H515.94Z" fill="url(#paint2_linear_1636_21697)"/>
<path d="M515.94 320.645L297.274 195.438C284.862 188.264 264.78 188.264 252.443 195.438L39.0401 319.553C33.1074 323.003 30.0541 327.471 29.8555 331.964C29.7314 334.67 29.8059 353.387 29.8555 355.993C29.93 360.66 33.0576 365.302 39.2137 368.851L257.904 494.059C270.316 501.232 290.398 501.232 302.71 494.059L516.113 369.968C522.046 366.518 525.099 362.05 525.323 357.532C525.447 354.826 525.372 336.135 525.323 333.528C525.248 328.861 522.145 324.195 515.964 320.645H515.94Z" fill="url(#paint3_linear_1636_21697)"/>
<path d="M515.942 320.645C528.354 327.819 528.428 339.436 516.091 346.61L302.687 470.7C290.35 477.874 270.293 477.874 257.882 470.7L39.1913 345.493C26.7798 338.319 26.7053 326.702 39.0424 319.528L252.446 195.413C264.783 188.239 284.865 188.239 297.276 195.413L515.942 320.62V320.645Z" fill="url(#paint4_linear_1636_21697)"/>
<path d="M160.549 339.833V373.89L220.447 408.519C226.852 412.192 234.77 412.143 241.125 408.345L392.545 318.212C395.549 316.425 395.152 311.932 391.875 310.716L359.233 298.577L160.549 339.808V339.833Z" fill="url(#paint5_linear_1636_21697)"/>
<path d="M322.844 364.879L384.877 397.149L444.13 362.695L386.515 333.056L322.844 364.879Z" fill="url(#paint6_linear_1636_21697)"/>
<path d="M280.294 457.544C275.181 457.544 270.266 456.452 267.113 454.64L53.6602 332.436L261.727 211.424C264.805 209.637 269.695 208.544 274.808 208.544C279.922 208.544 284.837 209.637 287.989 211.449L501.442 333.652L293.376 454.664C290.298 456.452 285.408 457.519 280.319 457.519L280.294 457.544Z" stroke="#D8DBED" stroke-width="2.06031" stroke-miterlimit="10"/>
<path d="M168.816 137.352L290.523 67.7728C294.321 65.5635 297.771 65.3649 300.278 66.8295C304.896 69.5104 303.481 68.8402 308.098 71.5459H308.073C310.555 72.9608 312.094 75.9892 312.094 80.3332V283.733C312.119 292.421 306.559 303.02 299.012 307.389L177.305 376.968C173.408 379.227 169.858 379.376 167.351 377.787C167.426 377.837 167.5 377.862 167.55 377.911C162.933 375.231 164.348 375.901 159.731 373.195C157.273 371.755 155.163 368.727 155.138 364.408V161.008C155.113 152.32 161.245 141.721 168.791 137.352H168.816Z" fill="url(#paint7_linear_1636_21697)"/>
<path d="M176.635 142.068C169.089 146.437 162.958 157.037 162.982 165.725V369.124C162.982 377.812 169.734 381.312 177.305 376.968L299.013 307.39C306.559 303.021 312.119 292.421 312.094 283.733V80.3334C312.07 71.6454 305.913 68.1205 298.342 72.4894L176.635 142.068V142.068Z" fill="url(#paint8_linear_1636_21697)"/>
<path opacity="0.8" d="M277.591 270.428L277.566 127.199H396.394V270.428L336.992 304.733L277.591 270.428Z" fill="url(#paint9_linear_1636_21697)"/>
<path d="M312.095 258.786V283.733C312.095 292.421 306.559 303.021 299.013 307.365L177.306 376.943C169.759 381.312 163.008 377.787 162.983 369.124V345.493L312.095 258.786V258.786Z" fill="url(#paint10_linear_1636_21697)"/>
<path d="M277.589 189.505V241.385L263.589 249.477L225.734 271.346L212.776 278.768V266.282L200.315 273.481V261.069L187.879 268.268V217.455L263.589 173.742V197.622L277.589 189.505Z" fill="url(#paint11_linear_1636_21697)"/>
<path d="M259.667 168.405V156.987L244.997 165.451V154.033L209.202 174.685V186.104L194.556 194.569V205.987L184.354 211.87V229.47L289.33 168.852V151.277L259.667 168.405Z" fill="url(#paint12_linear_1636_21697)"/>
<path d="M232.682 227.906L220.221 235.105V222.644L232.682 215.445V227.906Z" fill="#9D65C9"/>
<path d="M254.853 215.122L242.392 222.296V209.835L254.853 202.661V215.122Z" fill="#9D65C9"/>
<path d="M277.588 226.243L225.137 256.105V247.094L277.588 217.232V226.243Z" fill="#9D65C9"/>
<path d="M277.591 339.014V270.428L336.993 236.147L396.394 270.428V339.014L336.993 373.294L277.591 339.014Z" fill="url(#paint13_linear_1636_21697)"/>
<path d="M277.591 270.428L336.993 236.147L396.394 270.428L336.993 304.733L277.591 270.428Z" fill="url(#paint14_linear_1636_21697)"/>
<path d="M336.993 373.294L277.591 339.014V270.428L336.993 304.733V373.294Z" fill="url(#paint15_linear_1636_21697)"/>
<path d="M322.845 346.039L314.381 341.148L300.232 311.535V332.982L291.767 328.092V293.339L300.232 298.23L314.381 327.943V306.396L322.845 311.286V346.039V346.039Z" fill="url(#paint16_linear_1636_21697)"/>
<path d="M333.493 251.414L340.27 255.336L326.121 263.502L333.443 267.722L344.043 261.616L350.621 265.414L340.022 271.52L354.071 279.637L345.607 284.527L310.854 264.47L333.468 251.414H333.493Z" fill="url(#paint17_linear_1636_21697)"/>
<path d="M380.98 294.531V302.35L371.77 307.662V339.957L363.305 344.847V312.552L354.096 317.864V310.045L380.98 294.531Z" fill="url(#paint18_linear_1636_21697)"/>
</g>
<defs>
<filter id="filter0_f_1636_21697" x="12.7026" y="340.156" width="550.009" height="254.595" filterUnits="userSpaceOnUse" color-interpolation-filters="sRGB">
<feFlood flood-opacity="0" result="BackgroundImageFix"/>
<feBlend mode="normal" in="SourceGraphic" in2="BackgroundImageFix" result="shape"/>
<feGaussianBlur stdDeviation="14.8938" result="effect1_foregroundBlur_1636_21697"/>
</filter>
<linearGradient id="paint0_linear_1636_21697" x1="380.034" y1="-2.47615" x2="209.822" y2="-2.47615" gradientUnits="userSpaceOnUse">
<stop stop-color="#DDDFFB"/>
<stop offset="1" stop-color="white" stop-opacity="0"/>
</linearGradient>
<linearGradient id="paint1_linear_1636_21697" x1="305.54" y1="327.72" x2="170.975" y2="-84.7147" gradientUnits="userSpaceOnUse">
<stop stop-color="white"/>
<stop offset="1" stop-color="#DDDFFB"/>
</linearGradient>
<linearGradient id="paint2_linear_1636_21697" x1="29.7811" y1="-2.47607" x2="525.348" y2="-2.47607" gradientUnits="userSpaceOnUse">
<stop stop-color="#E0E1FB"/>
<stop offset="0.45" stop-color="#D0D1F7"/>
<stop offset="0.5" stop-color="#E0E1FB"/>
<stop offset="0.55" stop-color="#D0D1F7"/>
<stop offset="0.91" stop-color="#A8ABEA"/>
<stop offset="1" stop-color="#9497E3"/>
</linearGradient>
<linearGradient id="paint3_linear_1636_21697" x1="29.7811" y1="-2.47607" x2="525.348" y2="-2.47607" gradientUnits="userSpaceOnUse">
<stop stop-color="#E0E1FB"/>
<stop offset="0.45" stop-color="#D0D1F7"/>
<stop offset="0.5" stop-color="#E0E1FB"/>
<stop offset="0.55" stop-color="#D0D1F7"/>
<stop offset="0.91" stop-color="#A8ABEA"/>
<stop offset="1" stop-color="#9497E3"/>
</linearGradient>
<linearGradient id="paint4_linear_1636_21697" x1="257.311" y1="254.045" x2="343.199" y2="589.18" gradientUnits="userSpaceOnUse">
<stop stop-color="white"/>
<stop offset="1" stop-color="#DDDFFB"/>
</linearGradient>
<linearGradient id="paint5_linear_1636_21697" x1="269.299" y1="330.574" x2="305.59" y2="388.04" gradientUnits="userSpaceOnUse">
<stop stop-color="#CACBF5"/>
<stop offset="1" stop-color="white" stop-opacity="0"/>
</linearGradient>
<linearGradient id="paint6_linear_1636_21697" x1="377.703" y1="357.929" x2="411.487" y2="392.234" gradientUnits="userSpaceOnUse">
<stop stop-color="#CACBF5"/>
<stop offset="1" stop-color="white" stop-opacity="0"/>
</linearGradient>
<linearGradient id="paint7_linear_1636_21697" x1="210.866" y1="263.825" x2="338.878" y2="32.0772" gradientUnits="userSpaceOnUse">
<stop stop-color="#6E55DB"/>
<stop offset="1" stop-color="#FF87A4"/>
</linearGradient>
<linearGradient id="paint8_linear_1636_21697" x1="162.461" y1="107.192" x2="374.847" y2="439.423" gradientUnits="userSpaceOnUse">
<stop stop-color="#EA98DA"/>
<stop offset="1" stop-color="#5B6CF9"/>
</linearGradient>
<linearGradient id="paint9_linear_1636_21697" x1="336.967" y1="144.228" x2="336.967" y2="344.127" gradientUnits="userSpaceOnUse">
<stop stop-color="#C0EEFB" stop-opacity="0"/>
<stop offset="1" stop-color="#55DFFF"/>
</linearGradient>
<linearGradient id="paint10_linear_1636_21697" x1="359.06" y1="194.321" x2="152.532" y2="408.32" gradientUnits="userSpaceOnUse">
<stop stop-color="#EA98DA"/>
<stop offset="1" stop-color="#5B6CF9"/>
</linearGradient>
<linearGradient id="paint11_linear_1636_21697" x1="196.865" y1="278.743" x2="261.206" y2="190.249" gradientUnits="userSpaceOnUse">
<stop stop-color="#DDDFFB"/>
<stop offset="1" stop-color="white"/>
</linearGradient>
<linearGradient id="paint12_linear_1636_21697" x1="242.564" y1="173.022" x2="213.124" y2="262.286" gradientUnits="userSpaceOnUse">
<stop stop-color="#FFEFF3"/>
<stop offset="1" stop-color="#FFAFC5"/>
</linearGradient>
<linearGradient id="paint13_linear_1636_21697" x1="321.503" y1="375.355" x2="343.943" y2="273.034" gradientUnits="userSpaceOnUse">
<stop stop-color="#EA98DA"/>
<stop offset="1" stop-color="#5B6CF9"/>
</linearGradient>
<linearGradient id="paint14_linear_1636_21697" x1="358.092" y1="229.793" x2="329.347" y2="285.173" gradientUnits="userSpaceOnUse">
<stop stop-color="#EA98DA"/>
<stop offset="1" stop-color="#5B6CF9"/>
</linearGradient>
<linearGradient id="paint15_linear_1636_21697" x1="299.46" y1="304.708" x2="351.316" y2="418.249" gradientUnits="userSpaceOnUse">
<stop stop-color="#71B4FF"/>
<stop offset="1" stop-color="#2D53F8"/>
</linearGradient>
<linearGradient id="paint16_linear_1636_21697" x1="298.444" y1="301.878" x2="319.395" y2="344.053" gradientUnits="userSpaceOnUse">
<stop stop-color="#2849F5"/>
<stop offset="1" stop-color="#1E30AE"/>
</linearGradient>
<linearGradient id="paint17_linear_1636_21697" x1="309.539" y1="252.406" x2="353.078" y2="274.971" gradientUnits="userSpaceOnUse">
<stop stop-color="#2849F5"/>
<stop offset="1" stop-color="#1E30AE"/>
</linearGradient>
<linearGradient id="paint18_linear_1636_21697" x1="356.529" y1="294.903" x2="383.536" y2="337.773" gradientUnits="userSpaceOnUse">
<stop stop-color="#2849F5"/>
<stop offset="1" stop-color="#1E30AE"/>
</linearGradient>
<clipPath id="clip0_1636_21697">
<path d="M0 12.4115C0 5.55681 5.55682 0 12.4115 0H548.589C555.443 0 561 5.55682 561 12.4115V548.589C561 555.443 555.443 561 548.588 561H12.4115C5.55681 561 0 555.443 0 548.588V12.4115Z" fill="white"/>
</clipPath>
</defs>
</svg>
