<svg width="16" height="16" viewBox="0 0 16 16" fill="none" xmlns="http://www.w3.org/2000/svg">
<path d="M15.2351 0H9.11576C8.69557 0 8.1071 0.243753 7.81031 0.54054L0.22337 8.12748C0.0803126 8.27121 0 8.46574 0 8.66853C0 8.87132 0.0803126 9.06585 0.22337 9.20958L6.79042 15.7766C6.93415 15.9197 7.12868 16 7.33147 16C7.53426 16 7.72879 15.9197 7.87252 15.7766L15.4595 8.18969C15.7573 7.89188 16 7.30443 16 6.88424V0.764915C15.9992 0.562295 15.9183 0.368204 15.7751 0.224929C15.6318 0.0816534 15.4377 0.000805656 15.2351 0V0ZM11.4105 6.11932C11.2095 6.11925 11.0106 6.0796 10.8249 6.00264C10.6393 5.92567 10.4706 5.81289 10.3285 5.67073C10.1865 5.52858 10.0738 5.35984 9.99697 5.17415C9.92013 4.98845 9.88061 4.78944 9.88068 4.58847C9.88075 4.3875 9.9204 4.18852 9.99736 4.00287C10.0743 3.81723 10.1871 3.64856 10.3293 3.50651C10.4714 3.36445 10.6402 3.25178 10.8259 3.17494C11.0115 3.09809 11.2106 3.05857 11.4115 3.05864C11.8174 3.05878 12.2066 3.22014 12.4935 3.50723C12.7804 3.79432 12.9415 4.18362 12.9414 4.58949C12.9412 4.99536 12.7799 5.38456 12.4928 5.67146C12.2057 5.95835 11.8164 6.11946 11.4105 6.11932V6.11932Z" fill="#6B7280"/>
</svg>
